<?xml version="1.0" encoding="utf-8"?>
<!-- Generator: Adobe Illustrator 23.0.3, SVG Export Plug-In . SVG Version: 6.00 Build 0)  -->
<svg version="1.1" id="Layer_1" xmlns="http://www.w3.org/2000/svg" xmlns:xlink="http://www.w3.org/1999/xlink" x="0px" y="0px"
	 viewBox="0 0 431.96 127.38" style="enable-background:new 0 0 431.96 127.38;" xml:space="preserve">
<style type="text/css">
	.st0{fill-rule:evenodd;clip-rule:evenodd;fill:#FEFEFE;}
	.st1{display:none;fill:#FEFEFE;}
</style>
<path class="st0" d="M136.72,47.25c0.03,1.08,2.59,9.69,2.59,17.49c0,10.6-0.37,16.11-4.35,25.89c-1.81,4.48-3.89,7.9-6.57,11.78
	c-0.88,1.27-1.86,2.37-2.68,3.59c7.71,0,15.41,0.41,23.14,0.41l3-26.97l11.01,28.51l10.8-28.51c0.01,0.69,0.22,2.3,0.34,3.12
	l0.95,9.85c0.15,2.12,0.4,4.51,0.61,6.51c0.25,2.18,0.45,5.68,0.79,7.65c6.13-0.38,12.07-0.92,18.18-1.52
	c0.03-0.5-0.35-2.8-0.45-3.48l-6.6-54.52h-16.63l-5.81,16.01l-2.09,5.17l-0.92-2.63l-5.78-15.81c-0.35-1.02-0.72-1.76-0.94-2.72
	c-6.41,0-12.37,0.22-18.57,0.22L136.72,47.25z M230.23,89.36c-12.7,0-18.19-14.3-9.88-22.63c8.4-8.42,22.63-2.18,22.63,9.24
	c0,4.05-1.64,7.17-3.72,9.24c-2.4,2.37-5.24,4.16-9.02,4.16H230.23z M196.98,75.97c0,6.94,1.96,12.34,5.93,17.62
	c3.15,4.2,8.34,8.27,13.39,10.36c1.9,0.79,3.88,1.43,6.09,1.9c1.01,0.22,2.44,0.44,3.35,0.53c2.77,0.28,4.86,0.15,7.52,0.03
	c10.99-0.5,20.89-7.95,26.07-17.34c0.91-1.64,1.81-3.94,2.21-5.78c2.52-11.64-0.44-20.4-8.46-28.44
	c-5.11-5.12-13.49-9.12-21.32-9.12c-6.48,0-10.35,0.1-16.35,2.88c-3.35,1.55-6.64,3.79-9.09,6.25
	C200.62,60.58,196.98,66.95,196.98,75.97z M302.35,47.03v27.43c-0.51-0.38-3.64-5.81-4.23-6.79l-10.27-17.36
	c-0.38-0.63-0.69-1.14-1.05-1.76c-0.61-1.04-0.63-1.52-1.29-1.52h-17.07v59.61c5.71-0.34,12.29-0.85,17.78-1.29l-0.07-4.33
	c0-7.84,0-15.69,0-23.53c0.54,0.4,3.75,5.85,4.36,6.86l11.71,19.39l0.95,1.6l17.12-0.07l-0.01-59.52l-17.93,1.3V47.03z M62.22,64.74
	c0,3.34,0.72,6.06,2.22,8.78c4.46,8.02,20.01,9.72,20.01,12.81c0,3.98-4.92,3.45-8.64,3.45c-2.3,0-4.48-0.2-6.6-0.53l-6.35-1v16.63
	c8.55,1,15.53,2.49,24.09,0.78c3.75-0.75,7.03-1.99,9.59-3.79c9.22-6.48,9.7-21.22,1.51-27.43c-4.24-3.22-8.39-4.87-13.27-6.81
	c-7.87-3.12-2.65-5.71,1.61-5.71c5.25,0,9.59,0.54,14.68,1.73c-2.03-8.87-3.18-11.97-5.83-17.14l-0.54-0.1
	c-0.35-0.06-0.7-0.12-1.07-0.18c-13.96-2.09-31.44,0.88-31.44,18.49L62.22,64.74z M328.7,47.69v57.65l33.05,0.01l2.03-8.12
	c0.34-1.46,0.67-2.77,0.94-4.02l0.92-4.27h-18.35v-6.04h11.45V68.41h-11.45v-5.62l16.88,0.01l-0.63-3.53
	c-0.6-2.81-1.27-5.65-1.92-8.46l-1-3.81h-31.26c-0.5,0-0.64,0.15-0.64,0.64L328.7,47.69z M364.12,47.25c0.07,0.8,1.43,3.56,1.89,4.6
	l10.42,22.61c0.38,0.75,0.61,1.42,1.01,2.24l3.22,6.92c1.21,2.96,1.84,1.38-0.7,6.67l-6.38,13.55c-0.45,1.23,0.61,0.76,1.92,0.91
	l12.16,1.23c0.98,0.09,5.53,0.41,6.04,0.66c0.13-0.54,0.44-1.23,0.63-1.76l14.87-38.9c1.89-4.7,3.78-10.11,5.63-14.87
	c0.42-1.08,0.79-2.01,1.11-3.13l0.22-0.73c-4.32,0-14.01-1.51-19-1.51l-4.45,14.34c-0.26,0.94-0.47,1.54-0.72,2.31
	c-0.22,0.67-0.61,1.89-0.67,2.56c-0.76-0.56-4.93-12.94-5.37-14.28c-0.29-0.89-0.6-1.57-0.86-2.37c-0.28-0.82-0.72-1.84-0.89-2.56
	l-3.82,0.2l-4.73,0.35l-6.54,0.56c-1.57,0.16-3.19,0.4-5.01,0.4H364.12z M15.8,74.68c0,5.84-0.12,7.55,1.86,13.26
	c2.59,7.48,9.63,14.39,17.23,16.89c6.41,2.12,11.94,2.12,18.81,0.94c0.8-0.13,1.61-0.29,2.4-0.45l0.38-2.61l0.44-3.23l1.01-7.51
	l0.63-5.2l-1.95,0.86c-6.82,3.41-17.46,2.17-21.31-6.12c-1.52-3.28-1.39-8.12,0.09-11.23c1.41-2.96,4.29-5.33,7.38-6.45
	c4.1-1.49,7.76-1.14,10.54-0.45c0.19,0.04,0.38,0.1,0.57,0.15c0.98,0.28,1.96,0.63,2.96,0.92l1.67,0.69
	c-0.37-1.08-2.85-17.8-3.13-18.32c-0.92-0.92-8.52-1.1-10.63-1.1c-4.83,0-10.41,1.81-14.02,3.89c-3.38,1.95-7.24,5.39-9.47,8.66
	c-0.98,1.45-1.96,2.94-2.69,4.65c-1.36,3.19-2.75,7.29-2.75,11.72V74.68z M99.59,18.74c-6.76,0-5.61-5.94-2.77-9.02
	c3.28-3.54,12.69-6.76,12.69,0.6c0,3.88-5.88,8.42-9.94,8.42H99.59z M91.6,13.12c0,5.24,3.03,8.4,7.93,9.56
	c0.85,0.2,2.84-0.07,3.78,0.34c1.64,0.72,3.48,2.78,3.6,5.03c0.06,1.17-0.53,2.56-0.63,3.64c0.97,0.26,2.9,2.12,3.51,2.96
	c3.6,4.83,1.01,8.06,1.01,9.78c0,1.2,4.96,2.52,4.96,7.77c0,4.57-4.2,7.16-7.86,8.34c-1.79,0.57-2.81,0.91-1.86,2.88
	c8.02,0,12.4,1.76,14.61,8.72c0.51,1.62,1.43,2.56,2.44,1.42c0.1-0.12,1.49-6.41,7.86-3.73c0.94,0.4,1.42,0.94,2.3,1.16
	c1.2-0.8,0.95-1.87,0.72-3.73c-0.35-2.75,0.19-1.02-1.65-3.97c-0.41-0.64-0.67-1.11-1.05-1.76c-5.91-9.79,0.26-15.95,0.26-17.53
	c0-3.79-2.61-12.29-3.95-15.7c-2.85-7.27-5.77-12.65-9.86-18.85c-3.41-5.17-2.59-5.52-8.17-6.29c-1.41-0.19-2.59-0.41-4.01-0.73
	c-1.21-0.28-2.58-0.67-3.64-1.1c-6.54-2.59-3.1-1.08-5.24,1.98c-0.4,0.57-0.61,0.76-1.05,1.32c-1.74,2.21-4.01,5.18-4.01,8.52
	L91.6,13.12z M110.16,77.71c0,7.3-0.44,11.84-2.72,18.66c-2.2,6.56-4.95,12.5-8.97,17.81c-0.66,0.86-1.24,1.76-1.98,2.56l-2.15,2.39
	c-3.72,4.22-5.28,4.87-9.31,7.96c-0.2,0.16-0.26,0.19-0.38,0.29c5.11,0,15.88-5.09,20.27-8.27c3.78-2.72,5.4-4.08,8.75-7.45
	c3.09-3.09,6.07-7.11,8.42-10.82c1.48-2.33,4.45-8.01,5.39-10.6c0.28-0.79,0.56-1.51,0.86-2.37c0.59-1.58,1.08-3.03,1.6-4.87
	c0.53-1.84,2.21-8.74,2.25-10.7c-5.31-2.55-6.56,2.37-7.49,3.31c-1.42,1.42-4.08,1.43-5.53,0c-0.88-0.86-0.69-1.07-0.97-2.27
	c-0.97-4.27-6.19-7.95-10.85-7.95c-1.76,0,0.53,1.55,1.7,5.21c0.61,1.9,1.1,4.64,1.1,7.1H110.16z"/>
<path class="st1" d="M65.48,46.76h16.54l3.92,37.81l14.89-37.81h13.5l5.23,37.81l13.63-37.81h16.5l-23.5,59.07h-16.11l-5.45-36.41
	l-14.6,36.41H73.87L65.48,46.76z M206.07,105.83h-16.6l-2.42-10.53H166.2l-5.15,10.53h-16.54l29.78-59.07h16.93L206.07,105.83z
	 M184.64,84.27l-4.16-19.52l-9.11,19.52H184.64z M233.78,105.83l2.17-16.78c0,0,10.07,0,20.99,0S278,85.17,278,85.17l-8.16-10.01
	c0,0-6.5,2.03-10.07,2.03s-22.41-0.06-22.41-0.06l2.55-18.4c0,0,5.57,0,13.59,0c14.26,0,20.17,7.91,31.22,21.7
	c11.06,13.79,21.18,25.81,34.81,25.81l-7.57,7.84h17.19l13.42-14.02L332.3,84.88H315l6.1,8.92c-11.14,0-18.95-16.39-35.49-33.59
	c-12.55-12.29-22.07-13.45-26.58-13.45c-10.13,0-33.12,0-33.12,0l-7.45,59.07H233.78z M286.67,93.13h-15.27l-1.6,12.7h15.19
	L286.67,93.13z M296.82,60.66l7.68,9.05c0,0,3.33-3.06,7.24-5.11l-2,15.61h15.53l2.09-17.16c0.3-2.48,2.41-4.34,4.91-4.34H360
	l1.49-11.96c0,0-30.35,0-33.73,0c-13.16,0-26.19,10.05-26.19,10.05L296.82,60.66z M37.35,89.67c-0.65,4.44-3.52,4.43-4.44,4.43H1.34
	L0,105.06c0,0,5.72,1.01,9.39,1.01s27.09,0,27.09,0c12.12,0,16.76-10.24,16.76-21.19l-0.03-3.64c0-7.36-6.19-10.82-12.17-10.82
	H22.93c-1.93,0-3.5-1.57-3.5-3.5v-1.25c0-2.98,1.38-6.96,5.4-6.96h26.72l1.65-11.96H23.4c-16.62,0-19.48,12.29-19.48,21.67v3.48
	c0,7.41,6.22,11.17,12.39,11.17h21.84C38.15,83.09,38,85.22,37.35,89.67z M335.55,82.28h10.91c0,2.15-1.63,12.43-1.63,12.43
	l3.63,5.19l-3.97,5.56c11.34,0,14.43-0.82,14.43-0.82l4.14-32.57h-26.31L335.55,82.28z M430.17,46.76h-30.76
	c0,0-7.26-0.13-12.15,3.33c-4.89,3.46-6.24,10.72-6.24,10.72l-3.97,33.87v0.66c0,6.14,4.7,11.13,12.6,11.13l11.28,0
	c10.3,0,14.09-0.93,14.09-0.93c6.81,0,12.74-0.84,12.74-0.84l4.19-32.62h-26.32l-1.24,10.21h10.97l-1.56,12.39h-17.62h-0.32
	c-2.04,0-3.61-1.78-3.36-3.8c0.86-6.95,2.66-21.56,3.51-27.87c0.33-2.47,2.43-4.31,4.92-4.31h27.71L430.17,46.76z"/>
</svg>
