<?xml version="1.0" encoding="utf-8"?>
<!-- Generator: Adobe Illustrator 23.0.3, SVG Export Plug-In . SVG Version: 6.00 Build 0)  -->
<svg version="1.1" id="Layer_1" xmlns="http://www.w3.org/2000/svg" xmlns:xlink="http://www.w3.org/1999/xlink" x="0px" y="0px"
	 viewBox="0 0 64 64" style="enable-background:new 0 0 64 64;" xml:space="preserve">
<style type="text/css">
	.st0{display:none;fill:#FFFFFF;}
	.st1{fill:#FEFEFE;}
	.st2{display:none;fill:#FEFEFE;}
</style>
<path class="st0" d="M19.52,26.76l-5.66,3.67h5.66v7.87H8.78l1.97-2.06h6.75v-3.78h-6.75v-1.97l5.61-3.74H8.02v10.53L5.97,39.3
	V26.76V24.7h2.06h11.5V26.76z M24.4,24.7h-2.06V39.3l2.06-2.01V24.7z M34.03,24.7v11.54v2.06h-2.06h-6.9l2.01-2.06h4.89V24.7H34.03z
	 M46.43,26.73V24.7h-7.65h-0.74h-1.32V39.3l2.06-2.01v-4.83h4.81v-2.04h-4.81v-3.69H46.43z M58.03,26.73V24.7h-7.65h-0.74h-1.32
	V39.3l2.06-2.01v-4.83h4.81v-2.04h-4.81v-3.69H58.03z"/>
<path class="st0" d="M5.97,48.34c0,0,1.07,0.19,2.62,0.19c7.88,0,13.1-4.57,13.1-4.57c-7.96,0-9.93-7.55-9.93-7.55
	s1.07,0.33,2.07,0.33c1.76,0,2.69-0.45,2.69-0.45s-8.5-1.43-8.5-10.74c0,0,2.19,1.5,4.67,1.5c0,0-4.6-2.72-4.6-9.48
	c0-3.07,1.48-4.86,1.48-4.86s9.31,11.17,22.13,11.17c0,0-0.4-0.81-0.4-2.72c0-4.45,3.86-10.46,10.77-10.46
	c4.98,0,8.03,3.36,8.03,3.36c1.98,0,6.57-2.52,6.57-2.52c0,2.57-4.53,5.95-4.53,5.95c2.57,0,5.91-1.74,5.91-1.74
	c0,1.55-5.24,5.62-5.24,5.62c0,15.72-10.1,31.91-30.32,31.91C11.87,53.29,5.97,48.34,5.97,48.34z"/>
<path class="st0" d="M19.03,44.44l3.14,1.27c2.15,0.87,4.6-0.17,5.47-2.32c0.87-2.15-0.17-4.6-2.32-5.47l-3.22-1.3
	c0.61-0.22,1.26-0.35,1.94-0.35c3.11,0,5.63,2.52,5.63,5.63c0,3.11-2.52,5.63-5.63,5.63C21.85,47.52,19.96,46.27,19.03,44.44z
	 M34.24,25.45c0-3.55,2.88-6.43,6.43-6.43c3.55,0,6.43,2.88,6.43,6.43c0,3.55-2.88,6.43-6.43,6.43
	C37.12,31.89,34.24,29.01,34.24,25.45z M35.54,25.45c0,2.84,2.3,5.14,5.14,5.14c2.84,0,5.14-2.3,5.14-5.14
	c0-2.84-2.3-5.14-5.14-5.14C37.84,20.32,35.54,22.62,35.54,25.45z M31.97,5.93c-13.79,0-25.08,10.71-26,24.26l13.59,5.6
	c1.25-0.91,2.78-1.45,4.44-1.45c0.14,0,0.28,0,0.42,0.01l6.17-8.62c0-0.1-0.01-0.19-0.01-0.29c0-5.57,4.52-10.09,10.09-10.09
	c5.57,0,10.09,4.52,10.09,10.09c0,5.57-4.52,10.09-10.09,10.09c-0.16,0-0.33,0-0.49-0.01l-8.64,5.99c0.01,0.12,0.01,0.25,0.01,0.38
	c0,4.17-3.38,7.55-7.55,7.55c-3.59,0-6.6-2.51-7.36-5.87L7,39.51c3.22,10.74,13.18,18.56,24.97,18.56
	c14.4,0,26.07-11.67,26.07-26.07C58.03,17.6,46.36,5.93,31.97,5.93z M40.67,30.59c2.84,0,5.14-2.3,5.14-5.14
	c0-2.84-2.3-5.14-5.14-5.14c-2.84,0-5.14,2.3-5.14,5.14C35.54,28.29,37.84,30.59,40.67,30.59z"/>
<path class="st1" d="M40.45,24.97c-0.96,0-1.93,0.03-2.89-0.01c-0.53-0.02-0.78,0.14-0.96,0.67c-1.86,5.7-3.72,11.4-5.64,17.09
	c-1.19,3.52-2.84,6.81-5.38,9.57c-2.52,2.75-5.49,4.78-9.22,5.51c-1.25,0.24-2.51,0.33-3.77,0.08c-0.25-0.05-0.5-0.13-0.73-0.24
	c-0.87-0.41-1.31-1.13-1.22-1.99c0.09-0.83,0.71-1.44,1.65-1.66c0.95-0.21,1.88-0.02,2.81,0.07c1.67,0.16,3.33,0.33,5,0.07
	c1.47-0.23,2.58-0.96,3.32-2.27c0.92-1.64,1.54-3.39,2.13-5.16c2.31-6.97,4.62-13.95,6.93-20.92c0.27-0.82,0.27-0.83-0.57-0.83
	c-1.67,0-3.34-0.01-5.02,0.01c-0.5,0.01-0.71-0.07-0.5-0.63c0.59-1.57,0.15-1.27,1.79-1.29c1.54-0.02,3.09-0.02,4.63,0
	c0.44,0.01,0.64-0.14,0.77-0.56c0.83-2.55,1.75-5.06,3.04-7.42c2.52-4.62,6.31-7.6,11.43-8.86c1.15-0.28,2.34-0.35,3.51-0.07
	c1.23,0.28,1.91,1.12,1.79,2.15c-0.12,1.04-1.04,1.76-2.27,1.74c-1.53-0.02-3.01-0.45-4.5-0.72c-1.51-0.27-2.75,0.15-3.77,1.26
	c-1.57,1.69-2.48,3.74-3.2,5.88c-0.68,1.99-1.27,4-1.93,5.99c-0.17,0.51-0.03,0.62,0.47,0.61c1.97-0.02,3.95,0.01,5.92-0.02
	c0.55-0.01,0.67,0.15,0.49,0.67c-0.53,1.53-0.1,1.23-1.72,1.26C42.03,24.98,41.24,24.97,40.45,24.97z"/>
<path class="st2" d="M58.03,32.36c0-3.21-2.6-5.82-5.82-5.82c-1.49,0-2.85,0.57-3.88,1.49c-3.84-2.76-9.1-4.55-14.96-4.8l2.4-11.69
	l8.25,1.91c0.21,2.12,1.99,3.78,4.17,3.78c2.31,0,4.19-1.88,4.19-4.19c0-2.31-1.88-4.19-4.19-4.19c-1.59,0-2.98,0.89-3.69,2.2
	l-9.26-2.16c-0.63-0.15-1.26,0.25-1.4,0.88l-2.94,13.45c-5.98,0.2-11.35,2-15.26,4.81c-1.03-0.92-2.39-1.49-3.88-1.49
	c-3.21,0-5.82,2.6-5.82,5.82c0,2.32,1.36,4.32,3.33,5.25c-0.07,0.51-0.11,1.04-0.11,1.56C9.18,48,19.4,55.15,32,55.15
	c12.6,0,22.82-7.15,22.82-15.97c0-0.53-0.04-1.05-0.11-1.56C56.67,36.68,58.03,34.68,58.03,32.36z M19.17,36.41
	c0-2.17,1.76-3.93,3.93-3.93c2.17,0,3.93,1.76,3.93,3.93c0,2.17-1.76,3.93-3.93,3.93C20.93,40.34,19.17,38.58,19.17,36.41z
	 M41.58,47.21c-0.13,0.11-3.27,2.74-9.5,2.74c-6.23,0-9.42-2.62-9.55-2.73c-0.45-0.38-0.49-1.03-0.08-1.45
	c0.41-0.42,1.11-0.45,1.56-0.07c0.05,0.04,2.78,2.2,8.07,2.2c5.37,0,7.98-2.17,8-2.19c0.45-0.38,1.15-0.36,1.56,0.06
	C42.05,46.18,42.03,46.83,41.58,47.21z M40.92,40.34c-2.17,0-3.93-1.76-3.93-3.93c0-2.17,1.76-3.93,3.93-3.93s3.93,1.76,3.93,3.93
	C44.85,38.58,43.09,40.34,40.92,40.34z"/>
</svg>
