<?xml version="1.0" encoding="utf-8"?>
<!-- Generator: Adobe Illustrator 23.0.3, SVG Export Plug-In . SVG Version: 6.00 Build 0)  -->
<svg version="1.1" id="Layer_1" xmlns="http://www.w3.org/2000/svg" xmlns:xlink="http://www.w3.org/1999/xlink" x="0px" y="0px"
	 viewBox="0 0 64 64" style="enable-background:new 0 0 64 64;" xml:space="preserve">
<style type="text/css">
	.st0{display:none;fill:#FFFFFF;}
	.st1{fill:#FFFFFF;}
	.st2{display:none;fill:#FEFEFE;}
</style>
<path class="st0" d="M19.5,26.8l-5.7,3.7h5.7v7.9H8.8l2-2.1h6.8v-3.8h-6.8v-2l5.6-3.7H8v10.5l-2.1,2V26.8v-2.1H8h11.5L19.5,26.8
	L19.5,26.8z M24.4,24.7h-2.1v14.6l2.1-2V24.7z M34,24.7v11.5v2.1H32h-6.9l2-2.1H32V24.7H34z M46.4,26.7v-2h-7.7H38h-1.3v14.6l2.1-2
	v-4.8h4.8v-2h-4.8v-3.7C38.8,26.7,46.4,26.7,46.4,26.7z M58,26.7v-2h-7.7h-0.7h-1.3v14.6l2.1-2v-4.8h4.8v-2h-4.8v-3.7
	C50.4,26.7,58,26.7,58,26.7z"/>
<path class="st0" d="M6,48.3c0,0,1.1,0.2,2.6,0.2c7.9,0,13.1-4.6,13.1-4.6c-8,0-9.9-7.5-9.9-7.5s1.1,0.3,2.1,0.3
	c1.8,0,2.7-0.5,2.7-0.5S8,34.9,8,25.6c0,0,2.2,1.5,4.7,1.5c0,0-4.6-2.7-4.6-9.5c0-3.1,1.5-4.9,1.5-4.9s9.3,11.2,22.1,11.2
	c0,0-0.4-0.8-0.4-2.7c0-4.4,3.9-10.5,10.8-10.5c5,0,8,3.4,8,3.4c2,0,6.6-2.5,6.6-2.5c0,2.6-4.5,6-4.5,6c2.6,0,5.9-1.7,5.9-1.7
	c0,1.5-5.2,5.6-5.2,5.6c0,15.7-10.1,31.9-30.3,31.9C11.9,53.3,6,48.3,6,48.3z"/>
<path class="st1" d="M19,44.4l3.1,1.3c2.1,0.9,4.6-0.2,5.5-2.3c0.9-2.2-0.2-4.6-2.3-5.5l-3.2-1.3c0.6-0.2,1.3-0.3,1.9-0.3
	c3.1,0,5.6,2.5,5.6,5.6s-2.5,5.6-5.6,5.6C21.9,47.5,20,46.3,19,44.4z M34.2,25.5c0-3.5,2.9-6.4,6.4-6.4s6.4,2.9,6.4,6.4
	s-2.9,6.4-6.4,6.4C37.1,31.9,34.2,29,34.2,25.5z M35.5,25.5c0,2.8,2.3,5.1,5.1,5.1s5.1-2.3,5.1-5.1s-2.3-5.1-5.1-5.1
	C37.8,20.3,35.5,22.6,35.5,25.5z M32,5.9C18.2,5.9,6.9,16.6,6,30.2l13.6,5.6c1.3-0.9,2.8-1.5,4.4-1.5c0.1,0,0.3,0,0.4,0l6.2-8.6
	c0-0.1,0-0.2,0-0.3c0-5.6,4.5-10.1,10.1-10.1s10.1,4.5,10.1,10.1s-4.5,10.1-10.1,10.1c-0.2,0-0.3,0-0.5,0l-8.6,6c0,0.1,0,0.3,0,0.4
	c0,4.2-3.4,7.5-7.6,7.5c-3.6,0-6.6-2.5-7.4-5.9L7,39.5c3.2,10.7,13.2,18.6,25,18.6C46.4,58.1,58,46.4,58,32C58,17.6,46.4,5.9,32,5.9
	z"/>
<path class="st2" d="M40.5,25c-1,0-1.9,0-2.9,0c-0.5,0-0.8,0.1-1,0.7C34.7,31.3,32.9,37,31,42.7c-1.2,3.5-2.8,6.8-5.4,9.6
	c-2.5,2.8-5.5,4.8-9.2,5.5c-1.3,0.2-2.5,0.3-3.8,0.1c-0.3,0-0.5-0.1-0.7-0.2c-0.9-0.4-1.3-1.1-1.2-2c0.1-0.8,0.7-1.4,1.6-1.7
	c0.9-0.2,1.9,0,2.8,0.1c1.7,0.2,3.3,0.3,5,0.1c1.5-0.2,2.6-1,3.3-2.3c0.9-1.6,1.5-3.4,2.1-5.2c2.3-7,4.6-14,6.9-20.9
	c0.3-0.8,0.3-0.8-0.6-0.8c-1.7,0-3.3,0-5,0c-0.5,0-0.7-0.1-0.5-0.6c0.6-1.6,0.1-1.3,1.8-1.3c1.5,0,3.1,0,4.6,0
	c0.4,0,0.6-0.1,0.8-0.6c0.8-2.5,1.8-5.1,3-7.4c2.5-4.6,6.3-7.6,11.4-8.9c1.2-0.3,2.3-0.3,3.5-0.1c1.2,0.3,1.9,1.1,1.8,2.2
	c-0.1,1-1,1.8-2.3,1.7c-1.5,0-3-0.4-4.5-0.7c-1.5-0.3-2.8,0.1-3.8,1.3c-1.6,1.7-2.5,3.7-3.2,5.9c-0.7,2-1.3,4-1.9,6
	c-0.2,0.5,0,0.6,0.5,0.6c2,0,4,0,5.9,0c0.5,0,0.7,0.1,0.5,0.7c-0.5,1.5-0.1,1.2-1.7,1.3C42,25,41.2,25,40.5,25z"/>
<path class="st2" d="M58,32.4c0-3.2-2.6-5.8-5.8-5.8c-1.5,0-2.8,0.6-3.9,1.5c-3.8-2.8-9.1-4.6-15-4.8l2.4-11.7l8.3,1.9
	c0.2,2.1,2,3.8,4.2,3.8c2.3,0,4.2-1.9,4.2-4.2s-1.9-4.2-4.2-4.2c-1.6,0-3,0.9-3.7,2.2l-9.3-2.2c-0.6-0.1-1.3,0.3-1.4,0.9l-2.9,13.4
	c-6,0.2-11.4,2-15.3,4.8c-1-0.9-2.4-1.5-3.9-1.5c-3.2,0-5.8,2.6-5.8,5.8c0,2.3,1.4,4.3,3.3,5.3c-0.1,0.5-0.1,1-0.1,1.6
	c0,8.8,10.2,16,22.8,16s22.8-7.2,22.8-16c0-0.5,0-1-0.1-1.6C56.7,36.7,58,34.7,58,32.4z M19.2,36.4c0-2.2,1.8-3.9,3.9-3.9
	s3.9,1.8,3.9,3.9s-1.8,3.9-3.9,3.9S19.2,38.6,19.2,36.4z M41.6,47.2c-0.1,0.1-3.3,2.7-9.5,2.7s-9.4-2.6-9.5-2.7
	c-0.5-0.4-0.5-1-0.1-1.5c0.4-0.4,1.1-0.5,1.6-0.1c0,0,2.8,2.2,8.1,2.2c5.4,0,8-2.2,8-2.2c0.5-0.4,1.2-0.4,1.6,0.1
	C42,46.2,42,46.8,41.6,47.2z M40.9,40.3c-2.2,0-3.9-1.8-3.9-3.9s1.8-3.9,3.9-3.9s3.9,1.8,3.9,3.9S43.1,40.3,40.9,40.3z"/>
</svg>
