{
  "accessors": [
    {
      "bufferView": 2,
      "componentType": 5126,
      "count": 27,
      "max": [
        3.9219300746917725,
        10.637510299682617,
        0
      ],
      "min": [
        -5.9771599769592285,
        -2.6375100612640381,
        0
      ],
      "type": "VEC3"
    },
    {
      "bufferView": 2,
      "byteOffset": 324,
      "componentType": 5126,
      "count": 27,
      "max": [
        0,
        0,
        1
      ],
      "min": [
        0,
        0,
        1
      ],
      "type": "VEC3"
    },
    {
      "bufferView": 3,
      "componentType": 5126,
      "count": 27,
      "max": [
        -1,
        -0.00022748913033865392,
        0,
        1
      ],
      "min": [
        -1,
        -0.00030103328754194081,
        0,
        1
      ],
      "type": "VEC4"
    },
    {
      "bufferView": 2,
      "byteOffset": 648,
      "componentType": 5126,
      "count": 27,
      "max": [
        1,
        1,
        1
      ],
      "min": [
        1,
        1,
        1
      ],
      "type": "VEC3"
    },
    {
      "bufferView": 1,
      "componentType": 5126,
      "count": 27,
      "max": [
        0.55877000093460083,
        0.7518799901008606
      ],
      "min": [
        0,
        0
      ],
      "type": "VEC2"
    },
    {
      "bufferView": 0,
      "componentType": 5125,
      "count": 120,
      "max": [
        26
      ],
      "min": [
        0
      ],
      "type": "SCALAR"
    },
    {
      "bufferView": 2,
      "byteOffset": 972,
      "componentType": 5126,
      "count": 8116,
      "max": [
        0.59368002414703369,
        7.8626198768615723,
        2.6340899467468262
      ],
      "min": [
        -2.7771399021148682,
        -0.47988000512123108,
        0.075620003044605255
      ],
      "type": "VEC3"
    },
    {
      "bufferView": 2,
      "byteOffset": 98364,
      "componentType": 5126,
      "count": 8116,
      "max": [
        0.99933511018753052,
        0.99933546781539917,
        1
      ],
      "min": [
        -0.99933511018753052,
        -0.99933546781539917,
        -1
      ],
      "type": "VEC3"
    },
    {
      "bufferView": 3,
      "byteOffset": 432,
      "componentType": 5126,
      "count": 8116,
      "max": [
        0.99933558702468872,
        0.99933522939682007,
        0.34651324152946472,
        1
      ],
      "min": [
        -0.99933522939682007,
        -0.99933522939682007,
        -0.34653991460800171,
        1
      ],
      "type": "VEC4"
    },
    {
      "bufferView": 2,
      "byteOffset": 195756,
      "componentType": 5126,
      "count": 8116,
      "max": [
        1,
        1,
        1
      ],
      "min": [
        1,
        1,
        1
      ],
      "type": "VEC3"
    },
    {
      "bufferView": 1,
      "byteOffset": 216,
      "componentType": 5126,
      "count": 8116,
      "max": [
        0.99957001209259033,
        1
      ],
      "min": [
        0,
        0
      ],
      "type": "VEC2"
    },
    {
      "bufferView": 0,
      "byteOffset": 480,
      "componentType": 5125,
      "count": 13896,
      "max": [
        8115
      ],
      "min": [
        0
      ],
      "type": "SCALAR"
    },
    {
      "bufferView": 2,
      "byteOffset": 293148,
      "componentType": 5126,
      "count": 2222,
      "max": [
        0.68541997671127319,
        7.9116401672363281,
        2.6909201145172119
      ],
      "min": [
        -2.8327400684356689,
        -0.55425000190734863,
        2.115880012512207
      ],
      "type": "VEC3"
    },
    {
      "bufferView": 2,
      "byteOffset": 319812,
      "componentType": 5126,
      "count": 2222,
      "max": [
        0.83944839239120483,
        0.85972243547439575,
        0.97640877962112427
      ],
      "min": [
        -0.83945208787918091,
        -0.85972243547439575,
        -0.97640877962112427
      ],
      "type": "VEC3"
    },
    {
      "bufferView": 3,
      "byteOffset": 130288,
      "componentType": 5126,
      "count": 2222,
      "max": [
        0.61324858665466309,
        0.86378759145736694,
        0.97251266241073608,
        1
      ],
      "min": [
        -0.61302673816680908,
        -0.86505377292633057,
        -0.97497141361236572,
        1
      ],
      "type": "VEC4"
    },
    {
      "bufferView": 2,
      "byteOffset": 346476,
      "componentType": 5126,
      "count": 2222,
      "max": [
        1,
        1,
        1
      ],
      "min": [
        1,
        1,
        1
      ],
      "type": "VEC3"
    },
    {
      "bufferView": 1,
      "byteOffset": 65144,
      "componentType": 5126,
      "count": 2222,
      "max": [
        0.92417997121810913,
        0.97794997692108154
      ],
      "min": [
        0.0061699999496340752,
        0
      ],
      "type": "VEC2"
    },
    {
      "bufferView": 0,
      "byteOffset": 56064,
      "componentType": 5125,
      "count": 3360,
      "max": [
        2221
      ],
      "min": [
        0
      ],
      "type": "SCALAR"
    },
    {
      "bufferView": 2,
      "byteOffset": 373140,
      "componentType": 5126,
      "count": 6099,
      "max": [
        0.68775999546051025,
        7.9685301780700684,
        2.6449398994445801
      ],
      "min": [
        -2.8877599239349365,
        -0.6029999852180481,
        0
      ],
      "type": "VEC3"
    },
    {
      "bufferView": 2,
      "byteOffset": 446328,
      "componentType": 5126,
      "count": 6099,
      "max": [
        0.98197472095489502,
        0.99992287158966064,
        1
      ],
      "min": [
        -0.98197513818740845,
        -0.99992287158966064,
        -1
      ],
      "type": "VEC3"
    },
    {
      "bufferView": 3,
      "byteOffset": 165840,
      "componentType": 5126,
      "count": 6099,
      "max": [
        0.98334383964538574,
        1,
        1,
        1
      ],
      "min": [
        -0.98334765434265137,
        -1,
        -1,
        1
      ],
      "type": "VEC4"
    },
    {
      "bufferView": 2,
      "byteOffset": 519516,
      "componentType": 5126,
      "count": 6099,
      "max": [
        1,
        1,
        1
      ],
      "min": [
        0,
        0,
        0
      ],
      "type": "VEC3"
    },
    {
      "bufferView": 1,
      "byteOffset": 82920,
      "componentType": 5126,
      "count": 6099,
      "max": [
        1,
        0.99610000848770142
      ],
      "min": [
        0,
        0
      ],
      "type": "VEC2"
    },
    {
      "bufferView": 0,
      "byteOffset": 69504,
      "componentType": 5125,
      "count": 10284,
      "max": [
        6098
      ],
      "min": [
        0
      ],
      "type": "SCALAR"
    }
  ],
  "asset": {
    "extras": {
      "author": "FelixMatveev (https://sketchfab.com/FelixMatveev)",
      "license": "CC-BY-4.0 (http://creativecommons.org/licenses/by/4.0/)",
      "source": "https://sketchfab.com/models/fb18bf66514b4404b1f9aeafc6c68a35",
      "title": "Sheds"
    },
    "generator": "Sketchfab-3.19.6",
    "version": "2.0"
  },
  "bufferViews": [
    {
      "buffer": 0,
      "byteLength": 110640,
      "byteOffset": 0,
      "name": "floatBufferViews",
      "target": 34963
    },
    {
      "buffer": 0,
      "byteLength": 131712,
      "byteOffset": 110640,
      "byteStride": 8,
      "name": "floatBufferViews",
      "target": 34962
    },
    {
      "buffer": 0,
      "byteLength": 592704,
      "byteOffset": 242352,
      "byteStride": 12,
      "name": "floatBufferViews",
      "target": 34962
    },
    {
      "buffer": 0,
      "byteLength": 263424,
      "byteOffset": 835056,
      "byteStride": 16,
      "name": "floatBufferViews",
      "target": 34962
    }
  ],
  "buffers": [
    {
      "byteLength": 1098480,
      "uri": "scene.bin"
    }
  ],
  "images": [
    {
      "uri": "textures/metal_metallicRoughness.png"
    },
    {
      "uri": "textures/ground_baseColor.png"
    },
    {
      "uri": "textures/ground_metallicRoughness.png"
    },
    {
      "uri": "textures/roof_metallicRoughness.png"
    },
    {
      "uri": "textures/side_metallicRoughness.png"
    }
  ],
  "materials": [
    {
      "alphaMode": "BLEND",
      "doubleSided": true,
      "name": "ground",
      "occlusionTexture": {
        "index": 2,
        "strength": 1,
        "texCoord": 0
      },
      "pbrMetallicRoughness": {
        "baseColorFactor": [
          0.13808058349999999,
          0.16802737009999999,
          0.17534715040000001,
          1
        ],
        "baseColorTexture": {
          "index": 1,
          "texCoord": 0
        },
        "metallicFactor": 0.30659298779999999,
        "roughnessFactor": 0.60537347559999999
      }
    },
    {
      "doubleSided": false,
      "name": "side",
      "occlusionTexture": {
        "index": 4,
        "strength": 1,
        "texCoord": 0
      },
      "pbrMetallicRoughness": {
        "baseColorFactor": [
          1,
          0.27119792869999998,
          0,
          1
        ],
        "metallicFactor": 0.45293445119999998,
        "roughnessFactor": 0.2334222561
      }
    },
    {
      "doubleSided": false,
      "name": "roof",
      "occlusionTexture": {
        "index": 3,
        "strength": 1,
        "texCoord": 0
      },
      "pbrMetallicRoughness": {
        "baseColorFactor": [
          1,
          0.27119792869999998,
          0,
          1
        ],
        "metallicFactor": 0.2822027439,
        "roughnessFactor": 0.12976371950000001
      }
    },
    {
      "doubleSided": false,
      "name": "metal",
      "occlusionTexture": {
        "index": 0,
        "strength": 1,
        "texCoord": 0
      },
      "pbrMetallicRoughness": {
        "baseColorFactor": [
          0.40432810936357827,
          0.53214977961497967,
          0.57016034945880201,
          1
        ],
        "metallicFactor": 0.62976371949999999,
        "roughnessFactor": 0.18464176830000001
      }
    }
  ],
  "meshes": [
    {
      "name": "ground_0",
      "primitives": [
        {
          "attributes": {
            "COLOR_0": 3,
            "NORMAL": 1,
            "POSITION": 0,
            "TANGENT": 2,
            "TEXCOORD_0": 4
          },
          "indices": 5,
          "material": 0,
          "mode": 4
        }
      ]
    },
    {
      "name": "ground_1",
      "primitives": [
        {
          "attributes": {
            "COLOR_0": 9,
            "NORMAL": 7,
            "POSITION": 6,
            "TANGENT": 8,
            "TEXCOORD_0": 10
          },
          "indices": 11,
          "material": 1,
          "mode": 4
        }
      ]
    },
    {
      "name": "ground_2",
      "primitives": [
        {
          "attributes": {
            "COLOR_0": 15,
            "NORMAL": 13,
            "POSITION": 12,
            "TANGENT": 14,
            "TEXCOORD_0": 16
          },
          "indices": 17,
          "material": 2,
          "mode": 4
        }
      ]
    },
    {
      "name": "ground_3",
      "primitives": [
        {
          "attributes": {
            "COLOR_0": 21,
            "NORMAL": 19,
            "POSITION": 18,
            "TANGENT": 20,
            "TEXCOORD_0": 22
          },
          "indices": 23,
          "material": 3,
          "mode": 4
        }
      ]
    }
  ],
  "nodes": [
    {
      "children": [
        1
      ],
      "name": "RootNode (gltf orientation matrix)",
      "rotation": [
        -0.70710678118654746,
        -0,
        -0,
        0.70710678118654757
      ]
    },
    {
      "children": [
        2
      ],
      "name": "RootNode (model correction matrix)"
    },
    {
      "children": [
        3
      ],
      "name": "Root"
    },
    {
      "children": [
        4,
        5,
        6,
        7
      ],
      "matrix": [
        1,
        0,
        0,
        0,
        0,
        1,
        0,
        0,
        0,
        0,
        1,
        0,
        0,
        0,
        -0.027610000000000006,
        1
      ],
      "name": "ground"
    },
    {
      "mesh": 0,
      "name": "ground_0"
    },
    {
      "mesh": 1,
      "name": "ground_1"
    },
    {
      "mesh": 2,
      "name": "ground_2"
    },
    {
      "mesh": 3,
      "name": "ground_3"
    }
  ],
  "samplers": [
    {
      "magFilter": 9729,
      "minFilter": 9987,
      "wrapS": 10497,
      "wrapT": 10497
    }
  ],
  "scene": 0,
  "scenes": [
    {
      "name": "OSG_Scene",
      "nodes": [
        0
      ]
    }
  ],
  "textures": [
    {
      "sampler": 0,
      "source": 0
    },
    {
      "sampler": 0,
      "source": 1
    },
    {
      "sampler": 0,
      "source": 2
    },
    {
      "sampler": 0,
      "source": 3
    },
    {
      "sampler": 0,
      "source": 4
    }
  ]
}

