<?xml version="1.0" encoding="utf-8"?>
<!-- Generator: Adobe Illustrator 23.0.3, SVG Export Plug-In . SVG Version: 6.00 Build 0)  -->
<svg version="1.1" id="Layer_1" xmlns="http://www.w3.org/2000/svg" xmlns:xlink="http://www.w3.org/1999/xlink" x="0px" y="0px"
	 viewBox="0 0 128 128" style="enable-background:new 0 0 128 128;" xml:space="preserve">
<style type="text/css">
	.st0{fill:#FFFFFF;}
</style>
<g>
	<g>
		<path class="st0" d="M112.94,15.09v97.88H15.06V15.09H112.94 M128,0.03H0v128h128V0.03L128,0.03z"/>
	</g>
	<g>
		<g>
			<path class="st0" d="M88.57,61.46c0,8.54-2.12,15.11-6.35,19.69S71.91,88.03,64,88.03s-13.98-2.29-18.21-6.88
				s-6.35-11.18-6.35-19.77s2.12-15.15,6.37-19.68s10.34-6.79,18.27-6.79s13.99,2.28,18.19,6.85
				C86.47,46.33,88.57,52.89,88.57,61.46z M50.91,61.46c0,5.76,1.09,10.11,3.28,13.02c2.19,2.92,5.46,4.38,9.81,4.38
				c8.73,0,13.09-5.8,13.09-17.4c0-11.62-4.34-17.44-13.02-17.44c-4.35,0-7.64,1.46-9.85,4.39C52.01,51.34,50.91,55.69,50.91,61.46z
				"/>
		</g>
	</g>
</g>
</svg>
